<?xml version="1.0" encoding="utf-8"?>
<!-- Generator: Adobe Illustrator 19.1.0, SVG Export Plug-In . SVG Version: 6.00 Build 0)  -->
<svg version="1.1" id="Layer_1" xmlns="http://www.w3.org/2000/svg" xmlns:xlink="http://www.w3.org/1999/xlink" x="0px" y="0px"
	 width="60px" height="60px" viewBox="10 -10 60 60" style="enable-background:new 10 -10 60 60;" xml:space="preserve">
<style type="text/css">
	.st0{fill:#EC7063;}
	.st1{fill:#E6E6E6;}
	.st2{fill:#FFFFFF;}
</style>
<path class="st0" d="M40.1,10.7L21.6,3.8V-9.9h37V3.8L40.1,10.7z M24.6,1.8l15.5,5.7l15.5-5.7v-8.7h-31V1.8z"/>
<polygon class="st0" points="35,-8 35,6.1 39.9,9.1 45,6.4 45,-8 "/>
<circle class="st1" cx="41.3" cy="33.8" r="15.2"/>
<path class="st0" d="M40,50c-9.6,0-17.5-7.9-17.5-17.5S30.4,15,40,15s17.5,7.9,17.5,17.5S49.6,50,40,50z M40,17
	c-8.5,0-15.5,7-15.5,15.5S31.5,48,40,48s15.5-7,15.5-15.5S48.5,17,40,17z"/>
<path class="st2" d="M52,33.5l-1.8,1.7c-0.3,0.3-0.5,0.7-0.4,1.2l0.4,2.4c0.1,0.7-0.4,1.4-1.1,1.6l-2.4,0.4c-0.4,0.1-0.8,0.3-1,0.7
	l-1.1,2.2c-0.3,0.7-1.2,0.9-1.8,0.6l-2.2-1.1c-0.4-0.2-0.9-0.2-1.2,0L37,44.3c-0.7,0.3-1.5,0.1-1.8-0.6l-1.1-2.2
	c-0.2-0.4-0.6-0.7-1-0.7l-2.4-0.4c-0.7-0.1-1.3-0.8-1.1-1.6l0.4-2.4c0.1-0.4-0.1-0.9-0.4-1.2l-1.8-1.7c-0.5-0.5-0.5-1.4,0-1.9
	l1.8-1.7c0.3-0.3,0.5-0.7,0.4-1.2l-0.4-2.4c-0.1-0.7,0.4-1.4,1.1-1.6l2.4-0.4c0.4-0.1,0.8-0.3,1-0.7l1.1-2.2
	c0.3-0.7,1.2-0.9,1.8-0.6l2.2,1.1c0.4,0.2,0.9,0.2,1.2,0l2.2-1.1c0.7-0.3,1.5-0.1,1.8,0.6l1.1,2.2c0.2,0.4,0.6,0.7,1,0.7l2.4,0.4
	c0.7,0.1,1.3,0.8,1.1,1.6l-0.4,2.4c-0.1,0.4,0.1,0.9,0.4,1.2l1.8,1.7C52.5,32.1,52.5,32.9,52,33.5z"/>
<path class="st0" d="M36.4,45.4c-0.2,0-0.5,0-0.7-0.1c-0.6-0.2-1.1-0.6-1.4-1.2l-1.1-2.1c0-0.1-0.1-0.1-0.1-0.2l-0.1,0l-2.4-0.4
	c-0.6-0.1-1.2-0.5-1.6-1c-0.4-0.5-0.5-1.2-0.3-1.8l0.4-2.3c0-0.1,0-0.2-0.1-0.3l-1.8-1.7c-0.9-0.9-0.9-2.5,0-3.3l1.8-1.7
	C29,29,29,29,29,28.9l-0.4-2.4c-0.2-1.2,0.6-2.4,1.8-2.7l0.1,0l2.4-0.4c0.1,0,0.2-0.1,0.3-0.2l1.1-2.2c0.2-0.5,0.7-0.9,1.3-1.1
	c0.6-0.2,1.3-0.2,1.9,0.1l2.2,1.1c0.1,0,0.2,0,0.2,0l2.3-1.1c1.3-0.6,2.7-0.1,3.2,1.1l1.1,2.1c0,0.1,0.1,0.1,0.1,0.2l0.1,0l2.4,0.4
	c0.6,0.1,1.2,0.5,1.6,1c0.4,0.5,0.5,1.2,0.3,1.8l-0.4,2.3c0,0.1,0,0.2,0.1,0.3l1.7,1.6c0.5,0.4,0.8,0.9,0.9,1.5
	c0.1,0.6-0.1,1.3-0.6,1.8l-0.1,0.1l-1.8,1.7c-0.1,0.1-0.1,0.2-0.1,0.3l0.4,2.4c0.2,1.2-0.6,2.4-1.8,2.7l-0.1,0l-2.4,0.4
	c-0.1,0-0.2,0.1-0.3,0.2l-1.1,2.2c-0.2,0.5-0.7,0.9-1.3,1.1c-0.6,0.2-1.3,0.2-1.9-0.1l-2.2-1.1c-0.1,0-0.2,0-0.2,0l-0.1,0.1
	l-2.4,1.1C37.1,45.4,36.7,45.4,36.4,45.4z M40,42.1c0.4,0,0.7,0.1,1.1,0.3l2.2,1.1c0.1,0,0.2,0,0.3,0c0.1,0,0.1-0.1,0.1-0.1l1.1-2.3
	c0.2-0.4,0.7-1,1.7-1.2l2.4-0.4c0.2-0.1,0.4-0.3,0.3-0.5l-0.4-2.4c-0.1-0.7,0.1-1.5,0.7-2.1l1.8-1.7c0.1-0.1,0.1-0.2,0.1-0.2
	c0-0.1-0.1-0.1-0.1-0.2l-0.1-0.1l-1.8-1.7c-0.5-0.5-0.9-1.3-0.7-2.2l0.4-2.3c0-0.1,0-0.2,0-0.3c-0.1-0.1-0.1-0.1-0.2-0.2l-2.4-0.4
	c-0.7,0-1.4-0.5-1.8-1.2l-1.1-2.2c-0.1-0.2-0.4-0.2-0.5-0.1l-2.1,1.1c-0.6,0.4-1.4,0.4-2.1,0l-2.2-1.1c-0.1,0-0.2,0-0.3,0
	c-0.1,0-0.1,0.1-0.1,0.1L35,24c-0.2,0.4-0.7,1-1.7,1.2l-2.4,0.4c-0.2,0.1-0.4,0.3-0.3,0.5l0.4,2.4c0.1,0.7-0.1,1.5-0.7,2.1l-1.8,1.7
	c-0.1,0.1-0.1,0.4,0,0.5l1.8,1.7c0.5,0.5,0.9,1.3,0.7,2.2L30.6,39c0,0.1,0,0.2,0,0.3c0.1,0.1,0.1,0.1,0.2,0.2l2.4,0.4
	c0.7,0,1.4,0.5,1.8,1.2l1.1,2.2c0.1,0.1,0.1,0.1,0.1,0.2c0.1,0,0.2,0,0.4,0l2.3-1.1C39.2,42.1,39.6,42.1,40,42.1z"/>
<circle class="st2" cx="40" cy="12.5" r="1.9"/>
<path class="st0" d="M40,15.4c-1.6,0-2.9-1.3-2.9-2.9s1.3-2.9,2.9-2.9c1.6,0,2.9,1.3,2.9,2.9S41.6,15.4,40,15.4z M40,11.6
	c-0.5,0-0.9,0.4-0.9,0.9s0.4,0.9,0.9,0.9s0.9-0.4,0.9-0.9S40.5,11.6,40,11.6z"/>
</svg>
