<?xml version="1.0" encoding="utf-8"?>
<!-- Generator: Adobe Illustrator 19.1.0, SVG Export Plug-In . SVG Version: 6.00 Build 0)  -->
<svg version="1.1" id="Layer_1" xmlns="http://www.w3.org/2000/svg" xmlns:xlink="http://www.w3.org/1999/xlink" x="0px" y="0px"
	 width="60px" height="60px" viewBox="10 -10 60 60" style="enable-background:new 10 -10 60 60;" xml:space="preserve">
<style type="text/css">
	.st0{fill:#E6E6E6;}
	.st1{fill:#EC7063;}
	.st2{fill:#FFFFFF;}
</style>
<path class="st0" d="M56.6,18.5c0,0-8.6,1-7.1,4.1C51.7,27.2,56.6,18.5,56.6,18.5z"/>
<path class="st0" d="M20.7,28.4c0,0,15.4-4.8,11.4-9.5C26.4,11.9,20.7,28.4,20.7,28.4z"/>
<path class="st1" d="M49.3,25.2c0,0-0.1,0-0.1,0c-0.9,0-2.3-0.5-3.3-2.5c-0.5-1-0.5-2.1,0-3c1.9-3.4,10.5-4.5,11.5-4.6l2-0.2l-1,1.7
	C57.9,17.4,53.3,25.2,49.3,25.2z M55.5,17.3c-3.2,0.6-7,1.7-7.8,3.3c-0.1,0.2-0.3,0.6,0,1.2c0.7,1.4,1.3,1.4,1.5,1.4c0,0,0,0,0,0
	C51,23.2,53.6,20.2,55.5,17.3z"/>
<path class="st1" d="M15.9,30.6l0.6-1.9c0.5-1.6,5.1-15.4,11.2-16.5c2-0.3,3.8,0.6,5.5,2.8c1,1.3,1.3,2.7,0.8,4.1
	c-1.7,5.7-14.8,10.3-16.3,10.8L15.9,30.6z M28.6,14.2c-0.1,0-0.3,0-0.4,0c-3.6,0.6-7.3,8.5-9,13.1c4.5-1.8,12-5.3,13.1-8.8
	c0.2-0.8,0.1-1.6-0.5-2.3C30.6,14.8,29.6,14.2,28.6,14.2z"/>
<path class="st1" d="M38.3,40.7c-0.4,0-0.8-0.2-1.1-0.5c-0.6-0.6-0.5-1.6,0.1-2.1l0,0c0.1-0.1,6.2-5.9,5.3-12.3
	c-0.5-3.8-3.3-6.5-6.2-9.2c-3.7-3.5-7.9-7.5-7.5-14.5c0.1-0.8,0.8-1.4,1.6-1.4c0.8,0.1,1.5,0.8,1.4,1.6c-0.3,5.6,3,8.7,6.6,12.1
	c3.2,3,6.5,6.1,7.1,11c1.1,8-6,14.6-6.3,14.9C39,40.6,38.7,40.7,38.3,40.7z"/>
<polygon class="st0" points="32.9,41.8 35.7,48 54.5,48 52.7,41.8 "/>
<path class="st1" d="M55.6,49.7H24.4l0.8-6.5c0-1.1,1-2,2.1-2h25.2c1.1,0,2.1,0.9,2.1,2L55.6,49.7z M26.6,47.7h26.6l-0.6-4.4
	c0,0-0.1-0.1-0.1-0.1H27.3c0,0-0.1,0.1-0.1,0.1l0,0.1L26.6,47.7z"/>
<path class="st2" d="M39.9-4.5c0,0-7.8,2.3-5.9,4.9C36.7,4.3,39.9-4.5,39.9-4.5z"/>
<path class="st1" d="M35.5,2.4c-0.7,0-1.5-0.3-2.3-1.4c-0.5-0.7-0.6-1.4-0.4-2.1c0.8-2.4,5.8-4,6.8-4.3L41.5-6l-0.7,1.9
	c-0.4,1-2.4,6.2-5,6.5C35.7,2.4,35.6,2.4,35.5,2.4z M38.1-2.8c-1.7,0.7-3.1,1.6-3.4,2.3c0,0.1-0.1,0.2,0.1,0.3
	c0.2,0.2,0.5,0.6,0.7,0.6C36.2,0.3,37.2-1.1,38.1-2.8z"/>
<path class="st1" d="M16.5-0.8c-0.3,0-0.5-0.1-0.7-0.3l-1-1c-0.4-0.4-0.4-1,0-1.4s1-0.4,1.4,0l1,1c0.4,0.4,0.4,1,0,1.4
	C17-0.9,16.8-0.8,16.5-0.8z"/>
<path class="st1" d="M16.5,9.2c-0.3,0-0.5-0.1-0.7-0.3l-1-1c-0.4-0.4-0.4-1,0-1.4s1-0.4,1.4,0l1,1c0.4,0.4,0.4,1,0,1.4
	C17,9.1,16.8,9.2,16.5,9.2z"/>
<path class="st1" d="M23.5,7.2c-0.3,0-0.5-0.1-0.7-0.3l-1-1c-0.4-0.4-0.4-1,0-1.4s1-0.4,1.4,0l1,1c0.4,0.4,0.4,1,0,1.4
	C24,7.1,23.8,7.2,23.5,7.2z"/>
<path class="st1" d="M23.5-4.8c-0.3,0-0.5-0.1-0.7-0.3l-1-1c-0.4-0.4-0.4-1,0-1.4s1-0.4,1.4,0l1,1c0.4,0.4,0.4,1,0,1.4
	C24-4.9,23.8-4.8,23.5-4.8z"/>
<path class="st1" d="M47.5,6.2c-0.3,0-0.5-0.1-0.7-0.3l-1-1c-0.4-0.4-0.4-1,0-1.4s1-0.4,1.4,0l1,1c0.4,0.4,0.4,1,0,1.4
	C48,6.1,47.8,6.2,47.5,6.2z"/>
<path class="st1" d="M53.5,2.2c-0.3,0-0.5-0.1-0.7-0.3l-1-1c-0.4-0.4-0.4-1,0-1.4s1-0.4,1.4,0l1,1c0.4,0.4,0.4,1,0,1.4
	C54,2.1,53.8,2.2,53.5,2.2z"/>
<path class="st1" d="M55.5,9.2c-0.3,0-0.5-0.1-0.7-0.3l-1-1c-0.4-0.4-0.4-1,0-1.4s1-0.4,1.4,0l1,1c0.4,0.4,0.4,1,0,1.4
	C56,9.1,55.8,9.2,55.5,9.2z"/>
<path class="st1" d="M58.5,39.2c-0.3,0-0.5-0.1-0.7-0.3l-1-1c-0.4-0.4-0.4-1,0-1.4s1-0.4,1.4,0l1,1c0.4,0.4,0.4,1,0,1.4
	C59,39.1,58.8,39.2,58.5,39.2z"/>
<path class="st1" d="M59.5,32.2c-0.3,0-0.5-0.1-0.7-0.3l-1-1c-0.4-0.4-0.4-1,0-1.4s1-0.4,1.4,0l1,1c0.4,0.4,0.4,1,0,1.4
	C60,32.1,59.8,32.2,59.5,32.2z"/>
<path class="st1" d="M62.5-1.8c-0.3,0-0.5-0.1-0.7-0.3l-1-1c-0.4-0.4-0.4-1,0-1.4s1-0.4,1.4,0l1,1c0.4,0.4,0.4,1,0,1.4
	C63-1.9,62.8-1.8,62.5-1.8z"/>
<path class="st1" d="M21.5,37.2c-0.3,0-0.5-0.1-0.7-0.3l-1-1c-0.4-0.4-0.4-1,0-1.4s1-0.4,1.4,0l1,1c0.4,0.4,0.4,1,0,1.4
	C22,37.1,21.8,37.2,21.5,37.2z"/>
<path class="st1" d="M28.5,36.2c-0.3,0-0.5-0.1-0.7-0.3l-1-1c-0.4-0.4-0.4-1,0-1.4s1-0.4,1.4,0l1,1c0.4,0.4,0.4,1,0,1.4
	C29,36.1,28.8,36.2,28.5,36.2z"/>
</svg>
