<?xml version="1.0" encoding="utf-8"?>
<!-- Generator: Adobe Illustrator 19.1.0, SVG Export Plug-In . SVG Version: 6.00 Build 0)  -->
<svg version="1.1" id="Layer_1" xmlns="http://www.w3.org/2000/svg" xmlns:xlink="http://www.w3.org/1999/xlink" x="0px" y="0px"
	 width="60px" height="60px" viewBox="10 -10 60 60" style="enable-background:new 10 -10 60 60;" xml:space="preserve">
<style type="text/css">
	.st0{fill:#E6E6E6;}
	.st1{fill:#EC7063;}
	.st2{fill:#FFFFFF;}
</style>
<polygon class="st0" points="30.1,39 33.9,48 60,48 57.5,39.2 "/>
<path class="st0" d="M58,17.4c0,9.9-8.1,18-18,18c-3.5,0-6.7-1-9.4-2.7c-1.7-2.7-2.7-6-2.7-9.4c0-9.9,8.1-18,18-18
	c3.5,0,6.7,1,9.4,2.7C57.1,10.7,58,14,58,17.4z"/>
<path class="st1" d="M40,36.9c-3.6,0-7.2-1-10.2-2.9c-5.8-3.7-9.3-9.8-9.3-16.6C20.5,6.6,29.2-2.1,40-2.1c6.9,0,13.1,3.5,16.6,9.3
	c1.9,2.8,2.9,6.4,2.9,10.2C59.5,28.2,50.8,36.9,40,36.9z M40,0.9c-9.1,0-16.5,7.4-16.5,16.5c0,5.7,3,10.9,7.9,14
	c2.6,1.6,5.5,2.5,8.6,2.5c9.1,0,16.5-7.4,16.5-16.5c0-3.2-0.8-6.2-2.4-8.6C51.1,3.8,45.8,0.9,40,0.9z"/>
<path class="st1" d="M61,49.2H18.8l1.1-8.6c0-1.3,1.2-2.4,2.5-2.4h35c1.3,0,2.5,1.1,2.5,2.4L61,49.2z M21,47.2h37.7l-0.9-6.5
	c0-0.2-0.3-0.5-0.5-0.5h-35c-0.2,0-0.5,0.3-0.5,0.5l0,0.1L21,47.2z"/>
<path class="st1" d="M13.6,9.2c-0.3,0-0.5-0.1-0.7-0.3c-0.4-0.4-0.4-1,0-1.4l3-3.1c0.4-0.4,1-0.4,1.4,0c0.4,0.4,0.4,1,0,1.4l-3,3.1
	C14.1,9.1,13.9,9.2,13.6,9.2z"/>
<path class="st1" d="M16.6,9.2c-0.3,0-0.5-0.1-0.7-0.3l-3-3.1c-0.4-0.4-0.4-1,0-1.4c0.4-0.4,1-0.4,1.4,0l3,3.1c0.4,0.4,0.4,1,0,1.4
	C17.1,9.1,16.9,9.2,16.6,9.2z"/>
<path class="st1" d="M15.6,34.2c-0.3,0-0.5-0.1-0.7-0.3c-0.4-0.4-0.4-1,0-1.4l3-3.1c0.4-0.4,1-0.4,1.4,0s0.4,1,0,1.4l-3,3.1
	C16.1,34.1,15.9,34.2,15.6,34.2z"/>
<path class="st1" d="M18.6,34.2c-0.3,0-0.5-0.1-0.7-0.3l-3-3.1c-0.4-0.4-0.4-1,0-1.4s1-0.4,1.4,0l3,3.1c0.4,0.4,0.4,1,0,1.4
	C19.1,34.1,18.9,34.2,18.6,34.2z"/>
<path class="st1" d="M59.6,2.2c-0.3,0-0.5-0.1-0.7-0.3c-0.4-0.4-0.4-1,0-1.4l3-3.1c0.4-0.4,1-0.4,1.4,0c0.4,0.4,0.4,1,0,1.4l-3,3.1
	C60.1,2.1,59.9,2.2,59.6,2.2z"/>
<path class="st1" d="M62.6,2.2c-0.3,0-0.5-0.1-0.7-0.3l-3-3.1c-0.4-0.4-0.4-1,0-1.4c0.4-0.4,1-0.4,1.4,0l3,3.1c0.4,0.4,0.4,1,0,1.4
	C63.1,2.1,62.9,2.2,62.6,2.2z"/>
<path class="st1" d="M22.6-1.8c-0.3,0-0.5-0.1-0.7-0.3c-0.4-0.4-0.4-1,0-1.4l3-3.1c0.4-0.4,1-0.4,1.4,0c0.4,0.4,0.4,1,0,1.4l-3,3.1
	C23.1-1.9,22.9-1.8,22.6-1.8z"/>
<path class="st1" d="M25.6-1.8c-0.3,0-0.5-0.1-0.7-0.3l-3-3.1c-0.4-0.4-0.4-1,0-1.4c0.4-0.4,1-0.4,1.4,0l3,3.1c0.4,0.4,0.4,1,0,1.4
	C26.1-1.9,25.9-1.8,25.6-1.8z"/>
<path class="st2" d="M34.6,22.2c-0.3,0-0.5-0.1-0.7-0.3c-0.4-0.4-0.4-1,0-1.4l3-3.1c0.4-0.4,1-0.4,1.4,0c0.4,0.4,0.4,1,0,1.4l-3,3.1
	C35.1,22.1,34.9,22.2,34.6,22.2z"/>
<path class="st2" d="M37.6,22.2c-0.3,0-0.5-0.1-0.7-0.3l-3-3.1c-0.4-0.4-0.4-1,0-1.4c0.4-0.4,1-0.4,1.4,0l3,3.1c0.4,0.4,0.4,1,0,1.4
	C38.1,22.1,37.9,22.2,37.6,22.2z"/>
<path class="st2" d="M48.6,16.2c-0.3,0-0.5-0.1-0.7-0.3c-0.4-0.4-0.4-1,0-1.4l3-3.1c0.4-0.4,1-0.4,1.4,0s0.4,1,0,1.4l-3,3.1
	C49.1,16.1,48.9,16.2,48.6,16.2z"/>
<path class="st2" d="M51.6,16.2c-0.3,0-0.5-0.1-0.7-0.3l-3-3.1c-0.4-0.4-0.4-1,0-1.4c0.4-0.4,1-0.4,1.4,0l3,3.1c0.4,0.4,0.4,1,0,1.4
	C52.1,16.1,51.9,16.2,51.6,16.2z"/>
<path class="st2" d="M45.6,27.2c-0.3,0-0.5-0.1-0.7-0.3c-0.4-0.4-0.4-1,0-1.4l3-3.1c0.4-0.4,1-0.4,1.4,0c0.4,0.4,0.4,1,0,1.4l-3,3.1
	C46.1,27.1,45.9,27.2,45.6,27.2z"/>
<path class="st2" d="M48.6,27.2c-0.3,0-0.5-0.1-0.7-0.3l-3-3.1c-0.4-0.4-0.4-1,0-1.4c0.4-0.4,1-0.4,1.4,0l3,3.1c0.4,0.4,0.4,1,0,1.4
	C49.1,27.1,48.9,27.2,48.6,27.2z"/>
</svg>
